<svg xmlns="http://www.w3.org/2000/svg" xmlns:xlink="http://www.w3.org/1999/xlink" width="100" zoomAndPan="magnify" viewBox="0 0 75 74.999997" height="100" preserveAspectRatio="xMidYMid meet" version="1.0"><defs><clipPath id="86b6e88982"><path d="M 33 16.59375 L 40 16.59375 L 40 23 L 33 23 Z M 33 16.59375 " clip-rule="nonzero"/></clipPath><clipPath id="daaa5ec86b"><path d="M 31 27 L 63 27 L 63 58.59375 L 31 58.59375 Z M 31 27 " clip-rule="nonzero"/></clipPath><clipPath id="1df948da61"><path d="M 24 31 L 47 31 L 47 58.59375 L 24 58.59375 Z M 24 31 " clip-rule="nonzero"/></clipPath><clipPath id="4c96848297"><path d="M 40 50 L 55 50 L 55 58.59375 L 40 58.59375 Z M 40 50 " clip-rule="nonzero"/></clipPath><clipPath id="566779e195"><path d="M 42 52 L 53 52 L 53 58.59375 L 42 58.59375 Z M 42 52 " clip-rule="nonzero"/></clipPath><clipPath id="804dd38fbd"><path d="M 45 55 L 51 55 L 51 58.59375 L 45 58.59375 Z M 45 55 " clip-rule="nonzero"/></clipPath><clipPath id="62a0001404"><path d="M 68 57 L 75 57 L 75 58.59375 L 68 58.59375 Z M 68 57 " clip-rule="nonzero"/></clipPath><clipPath id="70ea4e88b7"><path d="M 21 57 L 65 57 L 65 58.59375 L 21 58.59375 Z M 21 57 " clip-rule="nonzero"/></clipPath><clipPath id="f8d1c44fb3"><path d="M 11 57 L 18 57 L 18 58.59375 L 11 58.59375 Z M 11 57 " clip-rule="nonzero"/></clipPath></defs><g clip-path="url(#86b6e88982)"><path stroke-linecap="round" transform="matrix(0.0394571, 0, 0, 0.039634, -2.225772, 0.152293)" fill="none" stroke-linejoin="round" d="M 917.413083 426.166252 C 967.80409 454.748084 1007.404096 494.269859 1036.114099 544.731578 " stroke="#231f20" stroke-width="18.85" stroke-opacity="1" stroke-miterlimit="4"/></g><path stroke-linecap="round" transform="matrix(0.0394571, 0, 0, 0.039634, -2.225772, 0.152293)" fill="none" stroke-linejoin="round" d="M 943.351087 495.945346 C 989.683093 530.933452 1023.739098 575.186013 1045.618101 628.900146 " stroke="#231f20" stroke-width="18.85" stroke-opacity="1" stroke-miterlimit="4"/><path fill="#f5f5f5" d="M 61.726562 42.976562 C 61.726562 48.476562 58.773438 53.28125 54.371094 55.886719 C 53.015625 56.6875 51.574219 57.257812 50.035156 57.597656 C 48.460938 57.941406 46.875 58.03125 45.269531 57.867188 C 44.863281 57.824219 44.460938 57.765625 44.066406 57.691406 C 43.992188 57.675781 43.917969 57.664062 43.84375 57.648438 C 43.4375 57.5625 43.035156 57.464844 42.640625 57.351562 C 42.003906 57.164062 41.378906 56.933594 40.769531 56.660156 C 39.46875 56.082031 38.273438 55.328125 37.1875 54.40625 C 36.101562 53.480469 35.167969 52.425781 34.382812 51.230469 C 33.597656 50.039062 32.996094 48.757812 32.578125 47.390625 C 32.160156 46.027344 31.941406 44.628906 31.921875 43.199219 C 31.921875 43.125 31.921875 43.050781 31.921875 42.976562 C 31.921875 42.660156 31.929688 42.347656 31.949219 42.039062 C 32.023438 40.851562 32.234375 39.691406 32.582031 38.554688 C 34.457031 32.445312 40.125 28.007812 46.824219 28.007812 C 55.054688 28.007812 61.726562 34.710938 61.726562 42.976562 Z M 61.726562 42.976562 " fill-opacity="1" fill-rule="nonzero"/><g clip-path="url(#daaa5ec86b)"><path stroke-linecap="round" transform="matrix(0.0394571, 0, 0, 0.039634, -2.225772, 0.152293)" fill="none" stroke-linejoin="round" d="M 1620.80818 1080.4931 C 1620.80818 1219.262825 1545.96417 1340.489218 1434.391155 1406.227433 C 1400.03815 1426.431832 1363.507145 1440.821306 1324.501139 1449.395856 C 1284.604134 1458.068964 1244.410128 1460.335799 1203.721123 1456.196361 C 1193.425121 1455.112222 1183.22812 1453.633852 1173.229118 1451.761249 C 1171.348118 1451.367017 1169.467118 1451.071343 1167.586118 1450.67711 C 1157.290116 1448.508833 1147.093115 1446.044882 1137.094113 1443.186699 C 1120.957111 1438.455913 1105.117109 1432.640989 1089.673107 1425.741926 C 1056.706102 1411.155335 1026.412098 1392.133633 998.890094 1368.873935 C 971.368091 1345.515678 947.707087 1318.905007 927.808085 1288.746245 C 907.909082 1258.686042 892.66308 1226.359004 882.070078 1191.863689 C 871.477077 1157.466932 865.933076 1122.183153 865.438076 1086.110909 C 865.438076 1084.238306 865.438076 1082.365703 865.438076 1080.4931 C 865.438076 1072.509899 865.636076 1064.625255 866.131076 1056.83917 C 868.012076 1026.877525 873.358077 997.605786 882.169078 968.925395 C 929.689085 814.780616 1073.338105 702.818679 1243.123128 702.818679 C 1451.716157 702.818679 1620.80818 871.944281 1620.80818 1080.4931 Z M 1620.80818 1080.4931 " stroke="#231f20" stroke-width="26.870001" stroke-opacity="1" stroke-miterlimit="4"/></g><path stroke-linecap="round" transform="matrix(0.0394571, 0, 0, 0.039634, -2.225772, 0.152293)" fill="none" stroke-linejoin="round" d="M 1030.768099 1080.4931 L 1360.735144 959.168149 " stroke="#231f20" stroke-width="13.44" stroke-opacity="1" stroke-miterlimit="4"/><path stroke-linecap="round" transform="matrix(0.0394571, 0, 0, 0.039634, -2.225772, 0.152293)" fill="none" stroke-linejoin="round" d="M 1360.735144 959.168149 C 1340.242141 1070.144506 1319.749139 1181.120862 1299.157136 1292.097219 " stroke="#231f20" stroke-width="13.44" stroke-opacity="1" stroke-miterlimit="4"/><path stroke-linecap="round" transform="matrix(0.0394571, 0, 0, 0.039634, -2.225772, 0.152293)" fill="none" stroke-linejoin="round" d="M 1003.246095 1270.315891 L 1120.165111 1360.890733 " stroke="#231f20" stroke-width="13.44" stroke-opacity="1" stroke-miterlimit="4"/><path stroke-linecap="round" transform="matrix(0.0394571, 0, 0, 0.039634, -2.225772, 0.152293)" fill="none" stroke-linejoin="round" d="M 1555.468171 868.100517 L 1361.725144 968.136931 " stroke="#231f20" stroke-width="13.44" stroke-opacity="1" stroke-miterlimit="4"/><path stroke-linecap="round" transform="matrix(0.0394571, 0, 0, 0.039634, -2.225772, 0.152293)" fill="none" stroke-linejoin="round" d="M 1620.80818 1092.911414 L 1361.725144 968.136931 " stroke="#231f20" stroke-width="13.44" stroke-opacity="1" stroke-miterlimit="4"/><path fill="#da7d55" d="M 39.039062 45.675781 C 39.039062 46.347656 38.945312 47.007812 38.761719 47.652344 C 38.578125 48.300781 38.308594 48.90625 37.949219 49.476562 C 37.59375 50.046875 37.167969 50.554688 36.671875 51.003906 C 36.171875 51.453125 35.621094 51.824219 35.019531 52.117188 C 34.035156 50.839844 33.277344 49.4375 32.75 47.910156 C 32.21875 46.386719 31.941406 44.8125 31.921875 43.199219 C 31.921875 43.125 31.921875 43.050781 31.921875 42.976562 C 31.921875 42.660156 31.929688 42.347656 31.949219 42.039062 C 32.023438 40.851562 32.234375 39.691406 32.582031 38.554688 C 33.019531 38.597656 33.449219 38.675781 33.871094 38.796875 C 34.292969 38.917969 34.703125 39.078125 35.097656 39.277344 C 35.488281 39.472656 35.863281 39.703125 36.210938 39.96875 C 36.5625 40.238281 36.886719 40.53125 37.183594 40.859375 C 37.476562 41.1875 37.742188 41.535156 37.972656 41.914062 C 38.203125 42.289062 38.398438 42.683594 38.558594 43.09375 C 38.71875 43.503906 38.835938 43.929688 38.917969 44.363281 C 39 44.796875 39.039062 45.234375 39.039062 45.675781 Z M 39.039062 45.675781 " fill-opacity="1" fill-rule="nonzero"/><g clip-path="url(#1df948da61)"><path stroke-linecap="butt" transform="matrix(0.0394571, 0, 0, 0.039634, -2.225772, 0.152293)" fill="none" stroke-linejoin="miter" d="M 1045.816101 1148.596708 C 1045.816101 1165.548692 1043.440101 1182.205001 1038.7871 1198.467078 C 1034.134099 1214.827713 1027.303098 1230.10421 1018.195097 1244.493684 C 1009.186096 1258.883158 998.395094 1271.695704 985.822093 1283.029879 C 973.150091 1294.364054 959.191089 1303.727068 943.945087 1311.118921 C 918.997083 1278.890441 899.791081 1243.508104 886.426079 1204.971909 C 872.962077 1166.534272 865.933076 1126.815381 865.438076 1086.110909 C 865.438076 1084.238306 865.438076 1082.365703 865.438076 1080.4931 C 865.438076 1072.509899 865.636076 1064.625255 866.131076 1056.83917 C 868.012076 1026.877525 873.358077 997.605786 882.169078 968.925395 C 893.25708 970.009534 904.147081 971.980695 914.839083 975.035994 C 925.531084 978.091293 935.926086 982.132173 945.925087 987.158633 C 955.825088 992.086536 965.32909 997.90146 974.140091 1004.603407 C 983.050092 1011.403912 991.267093 1018.795765 998.791094 1027.074641 C 1006.216095 1035.353516 1012.948096 1044.125182 1018.789097 1053.685313 C 1024.630098 1063.146885 1029.580099 1073.101247 1033.639099 1083.449842 C 1037.6981 1093.798436 1040.6681 1104.541263 1042.7471 1115.481206 C 1044.826101 1126.421148 1045.816101 1137.459649 1045.816101 1148.596708 Z M 1045.816101 1148.596708 " stroke="#231f20" stroke-width="13.44" stroke-opacity="1" stroke-miterlimit="10"/></g><path stroke-linecap="round" transform="matrix(0.0394571, 0, 0, 0.039634, -2.225772, 0.152293)" fill-opacity="1" fill="#f5f5f5" fill-rule="nonzero" stroke-linejoin="round" d="M 957.211089 1166.435714 L 994.534094 1166.435714 C 991.366093 1189.30118 982.753092 1209.899811 968.69509 1228.133049 C 954.637088 1246.366287 936.916086 1259.967297 915.631083 1268.936079 C 883.060078 1212.363762 866.329076 1151.454891 865.438076 1086.110909 C 865.438076 1084.238306 865.438076 1082.365703 865.438076 1080.4931 C 865.438076 1072.509899 865.636076 1064.625255 866.131076 1056.83917 L 883.258078 1056.83917 L 883.258078 1019.485672 C 897.31608 1021.456832 910.681082 1025.59627 923.452084 1031.903985 C 936.124086 1038.2117 947.509087 1046.392017 957.607089 1056.444938 C 967.60609 1066.497858 975.823091 1077.832033 982.159092 1090.546021 C 988.495093 1103.358566 992.653093 1116.663902 994.534094 1130.757702 L 957.211089 1130.757702 Z M 957.211089 1166.435714 " stroke="#231f20" stroke-width="13.44" stroke-opacity="1" stroke-miterlimit="4"/><path stroke-linecap="round" transform="matrix(0.0394571, 0, 0, 0.039634, -2.225772, 0.152293)" fill-opacity="1" fill="#a7babf" fill-rule="nonzero" stroke-linejoin="round" d="M 927.907085 1148.596708 C 927.907085 1161.704928 924.145084 1173.531893 916.720083 1184.27472 C 909.196082 1195.017546 899.395081 1202.606516 887.119079 1207.238744 C 873.259077 1168.012643 866.032076 1127.702403 865.438076 1086.110909 C 873.655077 1086.110909 881.674078 1087.687837 889.297079 1090.841695 C 897.01908 1094.09411 903.751081 1098.529222 909.592082 1104.442705 C 915.433083 1110.257629 919.987083 1117.058134 923.155084 1124.745662 C 926.323084 1132.334631 927.907085 1140.317832 927.907085 1148.596708 Z M 927.907085 1148.596708 " stroke="#231f20" stroke-width="13.44" stroke-opacity="1" stroke-miterlimit="4"/><path stroke-linecap="butt" transform="matrix(0.0394571, 0, 0, 0.039634, 0.0000015, 16.668973)" fill-opacity="1" fill="#da7d55" fill-rule="nonzero" stroke-linejoin="miter" d="M 1485.693167 551.40692 C 1485.693167 563.332443 1484.604167 575.06085 1482.228167 586.690699 C 1479.951166 598.22199 1476.486166 609.556165 1472.031165 620.496108 C 1467.477165 631.436051 1461.933164 641.883203 1455.300163 651.640449 C 1448.766162 661.496254 1441.242161 670.662152 1432.82716 679.039585 C 1424.511159 687.417019 1415.403157 694.90743 1405.503156 701.510819 C 1395.702155 708.01565 1385.307153 713.633459 1374.318152 718.167129 C 1363.42815 722.700799 1352.142149 726.15033 1340.460147 728.417165 C 1328.877146 730.684 1317.096144 731.866697 1305.315142 731.866697 C 1293.435141 731.866697 1281.654139 730.684 1270.071137 728.417165 C 1258.488136 726.15033 1247.202134 722.700799 1236.213133 718.167129 C 1225.323131 713.633459 1214.92813 708.01565 1205.028128 701.510819 C 1195.227127 694.90743 1186.020126 687.417019 1177.704125 679.039585 C 1169.289123 670.662152 1161.864122 661.496254 1155.231122 651.640449 C 1148.697121 641.883203 1143.15312 631.436051 1138.599119 620.496108 C 1134.045119 609.556165 1130.580118 598.22199 1128.303118 586.690699 C 1126.026117 575.06085 1124.838117 563.332443 1124.838117 551.40692 C 1124.838117 539.579954 1126.026117 527.851547 1128.303118 516.221698 C 1130.580118 504.591849 1134.045119 493.356232 1138.599119 482.416289 C 1143.15312 471.476347 1148.697121 461.029194 1155.231122 451.17339 C 1161.864122 441.317585 1169.289123 432.250245 1177.704125 423.872812 C 1186.020126 415.495378 1195.227127 408.004967 1205.028128 401.401578 C 1214.92813 394.798189 1225.323131 389.278939 1236.213133 384.745269 C 1247.202134 380.211599 1258.488136 376.762067 1270.071137 374.495232 C 1281.654139 372.129839 1293.435141 371.045701 1305.315142 371.045701 C 1317.096144 371.045701 1328.877146 372.129839 1340.460147 374.495232 C 1352.142149 376.762067 1363.42815 380.211599 1374.318152 384.745269 C 1385.307153 389.278939 1395.702155 394.798189 1405.503156 401.401578 C 1415.403157 408.004967 1424.511159 415.495378 1432.82716 423.872812 C 1441.242161 432.250245 1448.766162 441.317585 1455.300163 451.17339 C 1461.933164 461.029194 1467.477165 471.476347 1472.031165 482.416289 C 1476.486166 493.356232 1479.951166 504.591849 1482.228167 516.221698 C 1484.604167 527.851547 1485.693167 539.579954 1485.693167 551.40692 Z M 1485.693167 551.40692 " stroke="#231f20" stroke-width="13.44" stroke-opacity="1" stroke-miterlimit="10"/><path stroke-linecap="round" transform="matrix(0.0394571, 0, 0, 0.039634, -2.225772, 0.152293)" fill-opacity="1" fill="#f5f5f5" fill-rule="nonzero" stroke-linejoin="round" d="M 1453.498157 985.975937 L 1490.821162 985.975937 C 1488.940162 1000.069737 1484.782161 1013.473631 1478.446161 1026.187618 C 1472.11016 1038.901606 1463.893159 1050.334339 1453.894157 1060.288701 C 1443.796156 1070.341622 1432.411154 1078.521939 1419.739152 1084.928212 C 1406.968151 1091.235927 1393.603149 1095.375365 1379.545147 1097.346526 L 1379.545147 1059.993027 L 1343.905142 1059.993027 L 1343.905142 1097.346526 C 1329.74814 1095.375365 1316.383138 1091.235927 1303.612136 1084.928212 C 1290.940135 1078.620497 1279.555133 1070.44018 1269.556132 1060.387259 C 1259.45813 1050.334339 1251.241129 1038.901606 1244.905128 1026.187618 C 1238.668127 1013.473631 1234.510127 1000.069737 1232.530127 985.975937 L 1269.853132 985.975937 L 1269.853132 950.297925 L 1232.530127 950.297925 C 1234.510127 936.302683 1238.668127 922.898789 1245.004128 910.086244 C 1251.241129 897.372256 1259.45813 886.038081 1269.556132 875.985161 C 1279.555133 865.93224 1290.940135 857.751923 1303.711136 851.444208 C 1316.383138 845.037935 1329.74814 840.997055 1343.905142 839.025894 L 1343.905142 876.379393 L 1379.545147 876.379393 L 1379.545147 839.025894 C 1393.603149 840.898497 1406.968151 845.037935 1419.739152 851.444208 C 1432.411154 857.751923 1443.796156 865.93224 1453.894157 875.985161 C 1463.893159 886.038081 1472.11016 897.372256 1478.446161 910.086244 C 1484.782161 922.800231 1488.940162 936.204125 1490.821162 950.297925 L 1453.498157 950.297925 Z M 1453.498157 985.975937 " stroke="#231f20" stroke-width="13.44" stroke-opacity="1" stroke-miterlimit="4"/><path stroke-linecap="round" transform="matrix(0.0394571, 0, 0, 0.039634, 0.0000015, 16.668973)" fill-opacity="1" fill="#a7babf" fill-rule="nonzero" stroke-linejoin="round" d="M 1367.784151 551.40692 C 1367.784151 559.685795 1366.200151 567.668997 1363.03215 575.356524 C 1359.86415 583.044051 1355.310149 589.745998 1349.469148 595.659481 C 1343.628148 601.474406 1336.896147 606.008075 1329.174146 609.161933 C 1321.551145 612.31579 1313.532143 613.892719 1305.315142 613.892719 C 1296.999141 613.892719 1288.98014 612.31579 1281.357139 609.161933 C 1273.734138 606.008075 1266.903137 601.474406 1261.062136 595.659481 C 1255.221135 589.745998 1250.667135 583.044051 1247.499134 575.356524 C 1244.331134 567.668997 1242.747134 559.685795 1242.747134 551.40692 C 1242.747134 543.128044 1244.331134 535.144842 1247.499134 527.555873 C 1250.667135 519.868346 1255.221135 513.067841 1261.062136 507.252916 C 1266.903137 501.339434 1273.734138 496.904322 1281.357139 493.651906 C 1288.98014 490.498049 1296.999141 488.92112 1305.315142 488.92112 C 1313.532143 488.92112 1321.551145 490.498049 1329.174146 493.651906 C 1336.896147 496.904322 1343.628148 501.339434 1349.469148 507.252916 C 1355.310149 513.067841 1359.86415 519.868346 1363.03215 527.555873 C 1366.200151 535.144842 1367.784151 543.128044 1367.784151 551.40692 Z M 1367.784151 551.40692 " stroke="#231f20" stroke-width="13.44" stroke-opacity="1" stroke-miterlimit="4"/><path fill="#da7d55" d="M 54.371094 55.886719 C 53.015625 56.6875 51.574219 57.257812 50.035156 57.597656 C 48.460938 57.941406 46.875 58.03125 45.269531 57.867188 C 44.863281 57.824219 44.460938 57.765625 44.066406 57.691406 C 43.992188 57.675781 43.917969 57.664062 43.84375 57.648438 C 43.4375 57.5625 43.035156 57.464844 42.640625 57.351562 C 42.003906 57.164062 41.378906 56.933594 40.769531 56.660156 C 40.949219 55.914062 41.242188 55.21875 41.648438 54.566406 C 42.050781 53.917969 42.546875 53.347656 43.132812 52.859375 C 43.71875 52.367188 44.367188 51.980469 45.078125 51.699219 C 45.789062 51.421875 46.523438 51.257812 47.285156 51.214844 C 48.046875 51.171875 48.796875 51.25 49.535156 51.449219 C 50.269531 51.644531 50.957031 51.957031 51.597656 52.375 C 52.234375 52.796875 52.789062 53.304688 53.265625 53.90625 C 53.738281 54.507812 54.109375 55.167969 54.371094 55.886719 Z M 54.371094 55.886719 " fill-opacity="1" fill-rule="nonzero"/><g clip-path="url(#4c96848297)"><path stroke-linecap="round" transform="matrix(0.0394571, 0, 0, 0.039634, -2.225772, 0.152293)" fill="none" stroke-linejoin="round" d="M 1434.391155 1406.227433 C 1400.03815 1426.431832 1363.507145 1440.821306 1324.501139 1449.395856 C 1284.604134 1458.068964 1244.410128 1460.335799 1203.721123 1456.196361 C 1193.425121 1455.112222 1183.22812 1453.633852 1173.229118 1451.761249 C 1171.348118 1451.367017 1169.467118 1451.071343 1167.586118 1450.67711 C 1157.290116 1448.508833 1147.093115 1446.044882 1137.094113 1443.186699 C 1120.957111 1438.455913 1105.117109 1432.640989 1089.673107 1425.741926 C 1094.227108 1406.917339 1101.652109 1389.374008 1111.94811 1372.914814 C 1122.145111 1356.554179 1134.718113 1342.164705 1149.568115 1329.84495 C 1164.418117 1317.426636 1180.852119 1307.66939 1198.870122 1300.573211 C 1216.888124 1293.57559 1235.500127 1289.436152 1254.80513 1288.352013 C 1274.110132 1287.267875 1293.118135 1289.239036 1311.829138 1294.265496 C 1330.44114 1299.193398 1347.865143 1307.078042 1364.101145 1317.623752 C 1380.238147 1328.268021 1394.296149 1341.080566 1406.374151 1356.258505 C 1418.353152 1371.436444 1427.758154 1388.092753 1434.391155 1406.227433 Z M 1434.391155 1406.227433 " stroke="#231f20" stroke-width="13.44" stroke-opacity="1" stroke-miterlimit="4"/></g><path fill="#c9cac8" d="M 52.589844 56.785156 C 51.761719 57.132812 50.914062 57.402344 50.035156 57.597656 C 48.460938 57.941406 46.875 58.03125 45.269531 57.867188 C 44.863281 57.824219 44.460938 57.765625 44.066406 57.691406 L 44.066406 57.648438 L 43.84375 57.648438 C 43.4375 57.5625 43.035156 57.464844 42.640625 57.351562 C 42.746094 56.824219 42.929688 56.324219 43.1875 55.855469 C 43.445312 55.382812 43.769531 54.964844 44.160156 54.597656 C 44.546875 54.226562 44.984375 53.925781 45.464844 53.695312 C 45.945312 53.460938 46.453125 53.308594 46.984375 53.234375 L 46.984375 54.714844 L 48.390625 54.714844 L 48.390625 53.234375 C 48.871094 53.300781 49.332031 53.433594 49.777344 53.632812 C 50.21875 53.832031 50.628906 54.085938 51 54.402344 C 51.371094 54.714844 51.691406 55.074219 51.960938 55.480469 C 52.234375 55.882812 52.441406 56.320312 52.589844 56.785156 Z M 52.589844 56.785156 " fill-opacity="1" fill-rule="nonzero"/><g clip-path="url(#566779e195)"><path stroke-linecap="round" transform="matrix(0.0394571, 0, 0, 0.039634, -2.225772, 0.152293)" fill="none" stroke-linejoin="round" d="M 1389.247148 1428.895783 C 1368.259145 1437.667449 1346.776142 1444.467954 1324.501139 1449.395856 C 1284.604134 1458.068964 1244.410128 1460.335799 1203.721123 1456.196361 C 1193.425121 1455.112222 1183.22812 1453.633852 1173.229118 1451.761249 L 1173.229118 1450.67711 L 1167.586118 1450.67711 C 1157.290116 1448.508833 1147.093115 1446.044882 1137.094113 1443.186699 C 1139.767114 1429.881363 1144.420114 1417.265934 1150.954115 1405.438969 C 1157.488116 1393.513445 1165.705117 1382.967735 1175.605119 1373.703279 C 1185.40612 1364.340265 1196.494122 1356.751295 1208.671123 1350.936371 C 1220.848125 1345.022888 1233.718127 1341.179124 1247.182129 1339.306522 L 1247.182129 1376.66002 L 1282.822134 1376.66002 L 1282.822134 1339.306522 C 1294.999135 1340.982008 1306.681137 1344.332982 1317.967138 1349.359442 C 1329.15414 1354.385902 1339.549141 1360.792175 1348.954143 1368.775377 C 1358.359144 1376.66002 1366.477145 1385.72736 1373.308146 1395.977396 C 1380.238147 1406.128875 1385.485148 1417.167376 1389.247148 1428.895783 Z M 1389.247148 1428.895783 " stroke="#231f20" stroke-width="13.44" stroke-opacity="1" stroke-miterlimit="4"/></g><path fill="#a7babf" d="M 50.035156 57.597656 C 48.460938 57.941406 46.875 58.03125 45.269531 57.867188 C 45.324219 57.597656 45.417969 57.34375 45.558594 57.109375 C 45.695312 56.871094 45.867188 56.664062 46.074219 56.484375 C 46.277344 56.304688 46.507812 56.160156 46.761719 56.058594 C 47.015625 55.957031 47.277344 55.898438 47.550781 55.882812 C 47.824219 55.867188 48.089844 55.894531 48.351562 55.96875 C 48.617188 56.042969 48.859375 56.15625 49.085938 56.3125 C 49.308594 56.46875 49.503906 56.65625 49.667969 56.875 C 49.832031 57.09375 49.953125 57.335938 50.035156 57.597656 Z M 50.035156 57.597656 " fill-opacity="1" fill-rule="nonzero"/><g clip-path="url(#804dd38fbd)"><path stroke-linecap="round" transform="matrix(0.0394571, 0, 0, 0.039634, -2.225772, 0.152293)" fill="none" stroke-linejoin="round" d="M 1324.501139 1449.395856 C 1284.604134 1458.068964 1244.410128 1460.335799 1203.721123 1456.196361 C 1205.107123 1449.395856 1207.483123 1442.989583 1211.047124 1437.0761 C 1214.512124 1431.06406 1218.868125 1425.840484 1224.115125 1421.306814 C 1229.263126 1416.773144 1235.104127 1413.126496 1241.539128 1410.563987 C 1247.974129 1408.001478 1254.60713 1406.523107 1261.537131 1406.128875 C 1268.467132 1405.734643 1275.199133 1406.424549 1281.832133 1408.297152 C 1288.564134 1410.169755 1294.702135 1413.027938 1300.444136 1416.97026 C 1306.087137 1420.912581 1311.037137 1425.643367 1315.195138 1431.162618 C 1319.353139 1436.681868 1322.422139 1442.792467 1324.501139 1449.395856 Z M 1324.501139 1449.395856 " stroke="#231f20" stroke-width="13.44" stroke-opacity="1" stroke-miterlimit="4"/></g><path stroke-linecap="round" transform="matrix(0.0394571, 0, 0, 0.039634, -2.225772, 0.152293)" fill-opacity="1" fill="#f5f5f5" fill-rule="nonzero" stroke-linejoin="round" d="M 1351.627143 685.571021 C 1356.577144 698.482125 1352.716143 712.575925 1343.113142 720.657685 L 926.125084 878.843344 C 913.552083 879.139018 901.375081 871.155817 896.42508 858.244713 C 861.874075 731.597627 925.135084 600.02264 1041.6581 555.67152 C 1158.478116 511.123285 1293.415135 567.695602 1351.627143 685.571021 Z M 1351.627143 685.571021 " stroke="#231f20" stroke-width="26.870001" stroke-opacity="1" stroke-miterlimit="4"/><path stroke-linecap="round" transform="matrix(0.0394571, 0, 0, 0.039634, 0.0000015, 16.668973)" fill-opacity="1" fill="#231f20" fill-rule="nonzero" stroke-linejoin="round" d="M 1120.482117 270.910729 C 1120.482117 280.865091 1118.601116 290.523779 1114.740116 299.689677 C 1110.879115 308.954133 1105.533115 317.035893 1098.504114 324.033514 C 1091.376113 331.129693 1083.258112 336.550385 1074.05111 340.394149 C 1064.844109 344.139355 1055.340108 346.110516 1045.341106 346.110516 C 1035.342105 346.110516 1025.739104 344.139355 1016.532102 340.394149 C 1007.325101 336.550385 999.2071 331.129693 992.178099 324.033514 C 985.149098 317.035893 979.704097 308.954133 975.942097 299.689677 C 972.081096 290.523779 970.200096 280.865091 970.200096 270.910729 C 970.200096 260.956366 972.081096 251.396236 975.942097 242.230338 C 979.704097 232.965882 985.149098 224.884123 992.178099 217.787943 C 999.2071 210.790322 1007.325101 205.36963 1016.532102 201.525866 C 1025.739104 197.682103 1035.342105 195.8095 1045.341106 195.8095 C 1055.340108 195.8095 1064.844109 197.682103 1074.05111 201.525866 C 1083.258112 205.36963 1091.376113 210.790322 1098.504114 217.787943 C 1105.533115 224.884123 1110.879115 232.965882 1114.740116 242.230338 C 1118.601116 251.396236 1120.482117 260.956366 1120.482117 270.910729 Z M 1120.482117 270.910729 " stroke="#231f20" stroke-width="8.06" stroke-opacity="1" stroke-miterlimit="4"/><path stroke-linecap="round" transform="matrix(0.0394571, 0, 0, 0.039634, 0.0000015, 16.668973)" fill-opacity="1" fill="#416073" fill-rule="nonzero" stroke-linejoin="round" d="M 1103.454114 270.910729 C 1103.454114 278.696814 1101.969114 286.088667 1098.999114 293.184846 C 1096.128113 300.281026 1091.871113 306.58874 1086.426112 312.009433 C 1080.981111 317.528683 1074.74411 321.668121 1067.616109 324.624862 C 1060.488108 327.581604 1053.063107 329.059974 1045.341106 329.059974 C 1037.619105 329.059974 1030.194104 327.581604 1023.066103 324.624862 C 1015.938102 321.668121 1009.701101 317.528683 1004.256101 312.009433 C 998.8111 306.58874 994.554099 300.281026 991.584099 293.184846 C 988.713099 286.088667 987.228098 278.696814 987.228098 270.910729 C 987.228098 263.223201 988.713099 255.831348 991.584099 248.735169 C 994.554099 241.540432 998.8111 235.331275 1004.256101 229.812025 C 1009.701101 224.391332 1015.938102 220.153336 1023.066103 217.196595 C 1030.194104 214.338412 1037.619105 212.860041 1045.341106 212.860041 C 1053.063107 212.860041 1060.488108 214.338412 1067.616109 217.196595 C 1074.74411 220.153336 1080.981111 224.391332 1086.426112 229.812025 C 1091.871113 235.331275 1096.128113 241.540432 1098.999114 248.735169 C 1101.969114 255.831348 1103.454114 263.223201 1103.454114 270.910729 Z M 1103.454114 270.910729 " stroke="#231f20" stroke-width="6.72" stroke-opacity="1" stroke-miterlimit="4"/><path stroke-linecap="round" transform="matrix(0.0394571, 0, 0, 0.039634, -2.225772, 0.152293)" fill="none" stroke-linejoin="round" d="M 1125.115112 653.835331 C 1135.312113 660.537278 1141.945114 669.801734 1145.014115 681.6287 " stroke="#ffffff" stroke-width="13.44" stroke-opacity="1" stroke-miterlimit="4"/><path stroke-linecap="round" transform="matrix(0.0394571, 0, 0, 0.039634, -2.225772, 0.152293)" fill="none" stroke-linejoin="round" d="M 1095.910108 644.078085 C 1098.880108 642.895389 1101.949109 642.895389 1104.919109 644.176643 " stroke="#ffffff" stroke-width="13.44" stroke-opacity="1" stroke-miterlimit="4"/><path stroke-linecap="round" transform="matrix(0.0394571, 0, 0, 0.039634, 0.0000015, 16.668973)" fill-opacity="1" fill="#416073" fill-rule="nonzero" stroke-linejoin="round" d="M 952.380094 363.555289 C 952.380094 367.201937 951.687093 370.750026 950.301093 374.199558 C 948.816093 377.550531 946.836093 380.605831 944.262092 383.16834 C 941.589092 385.829407 938.619092 387.800568 935.253091 389.180381 C 931.788091 390.658751 928.32309 391.348657 924.56109 391.348657 C 920.898089 391.348657 917.334089 390.658751 913.968088 389.180381 C 910.503088 387.800568 907.533087 385.829407 904.959087 383.16834 C 902.286087 380.605831 900.306086 377.550531 898.920086 374.199558 C 897.534086 370.750026 896.841086 367.201937 896.841086 363.555289 C 896.841086 359.810084 897.534086 356.261994 898.920086 352.911021 C 900.306086 349.461489 902.286087 346.504748 904.959087 343.843681 C 907.533087 341.281172 910.503088 339.310011 913.968088 337.83164 C 917.334089 336.451827 920.898089 335.761921 924.56109 335.761921 C 928.32309 335.761921 931.788091 336.451827 935.253091 337.83164 C 938.619092 339.310011 941.589092 341.281172 944.262092 343.843681 C 946.836093 346.504748 948.816093 349.461489 950.301093 352.911021 C 951.687093 356.261994 952.380094 359.810084 952.380094 363.555289 Z M 952.380094 363.555289 " stroke="#231f20" stroke-width="12.09" stroke-opacity="1" stroke-miterlimit="4"/><path stroke-linecap="round" transform="matrix(0.0394571, 0, 0, 0.039634, -2.225772, 0.152293)" fill-opacity="1" fill="#416073" fill-rule="nonzero" stroke-linejoin="round" d="M 983.446092 763.727549 C 986.416093 764.023224 988.990093 765.20592 991.267093 767.078523 " stroke="#ffffff" stroke-width="6.05" stroke-opacity="1" stroke-miterlimit="4"/><path stroke-linecap="round" transform="matrix(0.0394571, 0, 0, 0.039634, 0.0000015, 16.668973)" fill-opacity="1" fill="#72738a" fill-rule="nonzero" stroke-linejoin="round" d="M 938.124092 506.760126 C 938.124092 511.58947 936.342091 515.827466 932.877091 519.276997 C 929.41209 522.726529 925.25409 524.500574 920.304089 524.500574 C 915.453088 524.500574 911.196088 522.726529 907.731087 519.276997 C 904.266087 515.827466 902.583087 511.58947 902.583087 506.760126 C 902.583087 501.832224 904.266087 497.594228 907.731087 494.144696 C 911.196088 490.695165 915.453088 488.92112 920.304089 488.92112 C 925.25409 488.92112 929.41209 490.695165 932.877091 494.144696 C 936.342091 497.594228 938.124092 501.832224 938.124092 506.760126 Z M 938.124092 506.760126 " stroke="#231f20" stroke-width="13.44" stroke-opacity="1" stroke-miterlimit="4"/><path stroke-linecap="round" transform="matrix(0.0394571, 0, 0, 0.039634, 0.0000015, 16.668973)" fill-opacity="1" fill="#72738a" fill-rule="nonzero" stroke-linejoin="round" d="M 1075.04111 462.113332 C 1075.04111 467.041235 1073.35811 471.180672 1069.79411 474.728762 C 1066.329109 478.178293 1062.171109 479.85378 1057.221108 479.85378 C 1052.370107 479.85378 1048.212107 478.178293 1044.648106 474.728762 C 1041.183106 471.180672 1039.500106 467.041235 1039.500106 462.113332 C 1039.500106 457.18543 1041.183106 453.045992 1044.648106 449.596461 C 1048.212107 446.048371 1052.370107 444.372885 1057.221108 444.372885 C 1062.171109 444.372885 1066.329109 446.048371 1069.79411 449.596461 C 1073.35811 453.045992 1075.04111 457.18543 1075.04111 462.113332 Z M 1075.04111 462.113332 " stroke="#231f20" stroke-width="13.44" stroke-opacity="1" stroke-miterlimit="4"/><path stroke-linecap="round" transform="matrix(0.0394571, 0, 0, 0.039634, 0.0000015, 16.668973)" fill-opacity="1" fill="#72738a" fill-rule="nonzero" stroke-linejoin="round" d="M 1142.65812 828.749253 C 1142.65812 833.677155 1140.87612 837.816593 1137.411119 841.364683 C 1133.946119 844.814214 1129.788118 846.489701 1124.838117 846.489701 C 1119.888117 846.489701 1115.730116 844.814214 1112.265116 841.364683 C 1108.800115 837.816593 1107.018115 833.677155 1107.018115 828.749253 C 1107.018115 823.821351 1108.800115 819.681913 1112.265116 816.133824 C 1115.730116 812.684292 1119.888117 811.008805 1124.838117 811.008805 C 1129.788118 811.008805 1133.946119 812.684292 1137.411119 816.133824 C 1140.87612 819.681913 1142.65812 823.821351 1142.65812 828.749253 Z M 1142.65812 828.749253 " stroke="#231f20" stroke-width="13.44" stroke-opacity="1" stroke-miterlimit="4"/><path stroke-linecap="round" transform="matrix(0.0394571, 0, 0, 0.039634, 0.0000015, 16.668973)" fill-opacity="1" fill="#72738a" fill-rule="nonzero" stroke-linejoin="round" d="M 1057.221108 763.011038 C 1057.221108 767.93894 1055.538108 772.176936 1052.073107 775.626468 C 1048.608107 779.075999 1044.351106 780.850044 1039.500106 780.850044 C 1034.550105 780.850044 1030.392104 779.075999 1026.927104 775.626468 C 1023.462103 772.176936 1021.680103 767.93894 1021.680103 763.011038 C 1021.680103 758.083136 1023.462103 753.943698 1026.927104 750.494167 C 1030.392104 746.946077 1034.550105 745.27059 1039.500106 745.27059 C 1044.351106 745.27059 1048.608107 746.946077 1052.073107 750.494167 C 1055.538108 753.943698 1057.221108 758.083136 1057.221108 763.011038 Z M 1057.221108 763.011038 " stroke="#231f20" stroke-width="13.44" stroke-opacity="1" stroke-miterlimit="4"/><path stroke-linecap="round" transform="matrix(0.0394571, 0, 0, 0.039634, 0.0000015, 16.668973)" fill-opacity="1" fill="#72738a" fill-rule="nonzero" stroke-linejoin="round" d="M 1160.379122 723.292147 C 1160.379122 728.220049 1158.696122 732.359487 1155.231122 735.907576 C 1151.766121 739.357108 1147.50912 741.032595 1142.65812 741.032595 C 1137.708119 741.032595 1133.550119 739.357108 1130.085118 735.907576 C 1126.620118 732.359487 1124.838117 728.220049 1124.838117 723.292147 C 1124.838117 718.364245 1126.620118 714.224807 1130.085118 710.676717 C 1133.550119 707.227186 1137.708119 705.551699 1142.65812 705.551699 C 1147.50912 705.551699 1151.766121 707.227186 1155.231122 710.676717 C 1158.696122 714.224807 1160.379122 718.364245 1160.379122 723.292147 Z M 1160.379122 723.292147 " stroke="#231f20" stroke-width="13.44" stroke-opacity="1" stroke-miterlimit="4"/><path stroke-linecap="round" transform="matrix(0.0394571, 0, 0, 0.039634, 0.0000015, 16.668973)" fill-opacity="1" fill="#72738a" fill-rule="nonzero" stroke-linejoin="round" d="M 1413.522157 763.011038 C 1413.522157 767.93894 1411.839157 772.176936 1408.374156 775.626468 C 1404.909156 779.075999 1400.652155 780.850044 1395.801155 780.850044 C 1390.851154 780.850044 1386.693153 779.075999 1383.228153 775.626468 C 1379.763153 772.176936 1377.981152 767.93894 1377.981152 763.011038 C 1377.981152 758.083136 1379.763153 753.943698 1383.228153 750.494167 C 1386.693153 746.946077 1390.851154 745.27059 1395.801155 745.27059 C 1400.652155 745.27059 1404.909156 746.946077 1408.374156 750.494167 C 1411.839157 753.943698 1413.522157 758.083136 1413.522157 763.011038 Z M 1413.522157 763.011038 " stroke="#231f20" stroke-width="13.44" stroke-opacity="1" stroke-miterlimit="4"/><path stroke-linecap="round" transform="matrix(0.0394571, 0, 0, 0.039634, 0.0000015, 16.668973)" fill-opacity="1" fill="#72738a" fill-rule="nonzero" stroke-linejoin="round" d="M 1397.781155 871.326328 C 1397.781155 876.25423 1395.999155 880.393668 1392.534154 883.843199 C 1389.069154 887.391289 1384.911153 889.066775 1379.961153 889.066775 C 1375.011152 889.066775 1370.853151 887.391289 1367.388151 883.843199 C 1363.92315 880.393668 1362.14115 876.25423 1362.14115 871.326328 C 1362.14115 866.398426 1363.92315 862.258988 1367.388151 858.710898 C 1370.853151 855.261367 1375.011152 853.58588 1379.961153 853.58588 C 1384.911153 853.58588 1389.069154 855.261367 1392.534154 858.710898 C 1395.999155 862.258988 1397.781155 866.398426 1397.781155 871.326328 Z M 1397.781155 871.326328 " stroke="#231f20" stroke-width="13.44" stroke-opacity="1" stroke-miterlimit="4"/><path stroke-linecap="round" transform="matrix(0.0394571, 0, 0, 0.039634, 0.0000015, 16.668973)" fill-opacity="1" fill="#72738a" fill-rule="nonzero" stroke-linejoin="round" d="M 1491.138168 834.367062 C 1491.138168 839.294964 1489.455168 843.53296 1485.990167 846.982491 C 1482.426167 850.432023 1478.268166 852.206067 1473.417165 852.206067 C 1468.467165 852.206067 1464.309164 850.432023 1460.844164 846.982491 C 1457.280163 843.53296 1455.597163 839.294964 1455.597163 834.367062 C 1455.597163 829.537717 1457.280163 825.299722 1460.844164 821.85019 C 1464.309164 818.400659 1468.467165 816.626614 1473.417165 816.626614 C 1478.268166 816.626614 1482.426167 818.400659 1485.990167 821.85019 C 1489.455168 825.299722 1491.138168 829.537717 1491.138168 834.367062 Z M 1491.138168 834.367062 " stroke="#231f20" stroke-width="13.44" stroke-opacity="1" stroke-miterlimit="4"/><path stroke-linecap="round" transform="matrix(0.0394571, 0, 0, 0.039634, -2.225772, 0.152293)" fill-opacity="1" fill="#f15a29" fill-rule="nonzero" stroke-linejoin="round" d="M 1226.095126 562.964816 L 1138.678114 598.347153 " stroke="#da7d55" stroke-width="20.15" stroke-opacity="1" stroke-miterlimit="4"/><path stroke-linecap="round" transform="matrix(0.0394571, 0, 0, 0.039634, 0.0000015, 16.668973)" fill-opacity="1" fill="#f15a29" fill-rule="nonzero" stroke-linejoin="round" d="M 1211.859129 286.088667 L 1284.723139 258.689531 " stroke="#da7d55" stroke-width="20.15" stroke-opacity="1" stroke-miterlimit="4"/><path stroke-linecap="round" transform="matrix(0.0394571, 0, 0, 0.039634, 0.0000015, 16.668973)" fill-opacity="1" fill="#f15a29" fill-rule="nonzero" stroke-linejoin="round" d="M 1146.42012 309.841156 L 1160.379122 304.617579 " stroke="#da7d55" stroke-width="20.15" stroke-opacity="1" stroke-miterlimit="4"/><path stroke-linecap="round" transform="matrix(0.0394571, 0, 0, 0.039634, -2.225772, 0.152293)" fill-opacity="1" fill="#f15a29" fill-rule="nonzero" stroke-linejoin="round" d="M 920.482084 675.419543 L 980.971092 652.652635 " stroke="#da7d55" stroke-width="20.15" stroke-opacity="1" stroke-miterlimit="4"/><path stroke-linecap="round" transform="matrix(0.0394571, 0, 0, 0.039634, -2.225772, 0.152293)" fill="none" stroke-linejoin="round" d="M 1351.627143 685.571021 C 1356.577144 698.482125 1352.716143 712.575925 1343.113142 720.657685 L 926.125084 878.843344 C 913.552083 879.139018 901.375081 871.155817 896.42508 858.244713 C 861.874075 731.597627 925.135084 600.02264 1041.6581 555.67152 C 1158.478116 511.123285 1293.415135 567.695602 1351.627143 685.571021 Z M 1351.627143 685.571021 " stroke="#231f20" stroke-width="26.870001" stroke-opacity="1" stroke-miterlimit="4"/><g clip-path="url(#62a0001404)"><path stroke-linecap="round" transform="matrix(0.0394571, 0, 0, 0.039634, 0.0000015, 16.668973)" fill="none" stroke-linejoin="round" d="M 1736.856202 1041.43751 L 1887.435223 1041.43751 " stroke="#231f20" stroke-width="26.870001" stroke-opacity="1" stroke-miterlimit="4"/></g><g clip-path="url(#70ea4e88b7)"><path stroke-linecap="round" transform="matrix(0.0394571, 0, 0, 0.039634, 0.0000015, 16.668973)" fill="none" stroke-linejoin="round" d="M 556.776039 1041.43751 L 1629.837187 1041.43751 " stroke="#231f20" stroke-width="26.870001" stroke-opacity="1" stroke-miterlimit="4"/></g><g clip-path="url(#f8d1c44fb3)"><path stroke-linecap="round" transform="matrix(0.0394571, 0, 0, 0.039634, 0.0000015, 16.668973)" fill="none" stroke-linejoin="round" d="M 292.941002 1041.43751 L 436.095022 1041.43751 " stroke="#231f20" stroke-width="26.870001" stroke-opacity="1" stroke-miterlimit="4"/></g><path stroke-linecap="round" transform="matrix(0.0394571, 0, 0, 0.039634, 0.0000015, 16.668973)" fill="none" stroke-linejoin="round" d="M 13.463964 853.58588 L 746.955065 853.58588 " stroke="#231f20" stroke-width="26.870001" stroke-opacity="1" stroke-miterlimit="4"/><path stroke-linecap="round" transform="matrix(0.0394571, 0, 0, 0.039634, 0.0000015, 16.668973)" fill="none" stroke-linejoin="round" d="M 609.642046 212.268693 L 785.36707 212.268693 " stroke="#231f20" stroke-width="26.870001" stroke-opacity="1" stroke-miterlimit="4"/><path fill="#939598" d="M 60.761719 46.511719 C 60.359375 48.019531 59.738281 49.425781 58.894531 50.738281 C 57.722656 52.546875 56.460938 53.628906 55.683594 54.285156 C 54.542969 55.253906 53.441406 56.179688 51.707031 56.816406 C 49.753906 57.527344 47.96875 57.515625 46.496094 57.507812 C 45.730469 57.503906 44.964844 57.457031 44.203125 57.359375 C 41.292969 56.964844 37.332031 54.925781 34.769531 51.144531 C 32.058594 47.140625 32.105469 42.941406 32.292969 41.316406 C 32.480469 39.710938 33.023438 38.339844 33.023438 38.339844 C 33.449219 37.273438 34.019531 36.292969 34.738281 35.402344 C 34.632812 35.871094 34.554688 36.347656 34.503906 36.828125 C 34.449219 37.316406 34.421875 37.808594 34.421875 38.296875 C 34.421875 45.972656 40.953125 52.191406 49.003906 52.191406 C 53.832031 52.1875 58.109375 49.953125 60.761719 46.511719 Z M 60.761719 46.511719 " fill-opacity="0.2784" fill-rule="nonzero"/><path fill="#939598" d="M 43.328125 27.871094 C 43.28125 28.113281 43.191406 28.339844 43.0625 28.550781 C 42.9375 28.761719 42.777344 28.945312 42.589844 29.101562 C 42.398438 29.257812 42.1875 29.375 41.957031 29.460938 C 41.726562 29.542969 41.488281 29.585938 41.242188 29.585938 C 40.0625 29.585938 39.105469 28.617188 39.105469 27.417969 C 39.105469 26.945312 39.242188 26.519531 39.519531 26.136719 C 39.488281 26.285156 39.472656 26.4375 39.472656 26.589844 C 39.472656 27.785156 40.429688 28.757812 41.609375 28.757812 C 42.332031 28.753906 42.90625 28.460938 43.328125 27.871094 Z M 43.328125 27.871094 " fill-opacity="0.2784" fill-rule="nonzero"/><path fill="#939598" d="M 37.320312 31.265625 C 37.292969 31.394531 37.242188 31.507812 37.164062 31.613281 C 37.082031 31.714844 36.988281 31.796875 36.871094 31.859375 C 36.753906 31.917969 36.632812 31.949219 36.5 31.953125 C 36.371094 31.953125 36.246094 31.929688 36.128906 31.875 C 36.007812 31.824219 35.90625 31.746094 35.824219 31.648438 C 35.738281 31.546875 35.679688 31.433594 35.648438 31.308594 C 35.613281 31.183594 35.609375 31.054688 35.632812 30.925781 C 35.65625 30.796875 35.707031 30.679688 35.785156 30.574219 C 35.742188 30.773438 35.769531 30.964844 35.859375 31.144531 C 35.953125 31.328125 36.09375 31.460938 36.277344 31.542969 C 36.460938 31.625 36.652344 31.640625 36.847656 31.589844 C 37.042969 31.535156 37.203125 31.429688 37.320312 31.265625 Z M 37.320312 31.265625 " fill-opacity="0.2784" fill-rule="nonzero"/><path fill="#939598" d="M 43.761719 29.175781 C 43.464844 30.621094 42.207031 31.707031 40.703125 31.707031 C 38.976562 31.707031 37.578125 30.277344 37.578125 28.507812 C 37.578125 27.8125 37.777344 27.183594 38.183594 26.617188 C 38.136719 26.835938 38.117188 27.058594 38.117188 27.285156 C 38.117188 29.050781 39.515625 30.484375 41.242188 30.484375 C 41.742188 30.484375 42.214844 30.367188 42.660156 30.136719 C 43.105469 29.90625 43.472656 29.585938 43.761719 29.175781 Z M 43.761719 29.175781 " fill-opacity="0.2784" fill-rule="nonzero"/><path fill="#939598" d="M 37.609375 31.832031 C 37.535156 32.171875 37.355469 32.445312 37.074219 32.648438 C 36.792969 32.851562 36.480469 32.9375 36.136719 32.898438 C 35.792969 32.863281 35.503906 32.714844 35.269531 32.457031 C 35.039062 32.199219 34.921875 31.898438 34.917969 31.550781 C 34.917969 31.253906 35.003906 30.984375 35.179688 30.746094 C 35.113281 31.058594 35.15625 31.359375 35.300781 31.644531 C 35.449219 31.929688 35.667969 32.140625 35.957031 32.269531 C 36.25 32.402344 36.550781 32.425781 36.859375 32.34375 C 37.167969 32.261719 37.417969 32.089844 37.605469 31.832031 Z M 37.609375 31.832031 " fill-opacity="0.2784" fill-rule="nonzero"/></svg>